<mxfile host="Electron" modified="2024-03-18T13:51:00.871Z" agent="Mozilla/5.0 (Macintosh; Intel Mac OS X 10_15_7) AppleWebKit/537.36 (KHTML, like Gecko) draw.io/24.0.4 Chrome/120.0.6099.109 Electron/28.1.0 Safari/537.36" etag="XfVuGnr8Jb1q9igE0V0q" version="24.0.4" type="device">
  <diagram id="prtHgNgQTEPvFCAcTncT" name="Page-1">
    <mxGraphModel dx="1434" dy="854" grid="1" gridSize="10" guides="1" tooltips="1" connect="1" arrows="1" fold="1" page="1" pageScale="1" pageWidth="827" pageHeight="1169" math="0" shadow="0">
      <root>
        <mxCell id="0" />
        <mxCell id="1" parent="0" />
        <mxCell id="dNxyNK7c78bLwvsdeMH5-11" value="Server usecases" style="swimlane;html=1;startSize=20;horizontal=1;containerType=tree;glass=0;" parent="1" vertex="1">
          <mxGeometry x="60" y="80" width="820" height="290" as="geometry" />
        </mxCell>
        <mxCell id="WeWwHeKYHVYtI0MyBNUX-9" style="edgeStyle=orthogonalEdgeStyle;rounded=0;orthogonalLoop=1;jettySize=auto;html=1;entryX=0.5;entryY=0;entryDx=0;entryDy=0;" parent="dNxyNK7c78bLwvsdeMH5-11" source="WeWwHeKYHVYtI0MyBNUX-1" target="WeWwHeKYHVYtI0MyBNUX-2" edge="1">
          <mxGeometry relative="1" as="geometry" />
        </mxCell>
        <mxCell id="WeWwHeKYHVYtI0MyBNUX-10" style="edgeStyle=orthogonalEdgeStyle;rounded=0;orthogonalLoop=1;jettySize=auto;html=1;entryX=0.5;entryY=0;entryDx=0;entryDy=0;" parent="dNxyNK7c78bLwvsdeMH5-11" source="WeWwHeKYHVYtI0MyBNUX-1" target="WeWwHeKYHVYtI0MyBNUX-3" edge="1">
          <mxGeometry relative="1" as="geometry" />
        </mxCell>
        <mxCell id="WeWwHeKYHVYtI0MyBNUX-13" style="edgeStyle=orthogonalEdgeStyle;rounded=0;orthogonalLoop=1;jettySize=auto;html=1;entryX=0.5;entryY=0;entryDx=0;entryDy=0;" parent="dNxyNK7c78bLwvsdeMH5-11" source="WeWwHeKYHVYtI0MyBNUX-1" target="WeWwHeKYHVYtI0MyBNUX-4" edge="1">
          <mxGeometry relative="1" as="geometry" />
        </mxCell>
        <mxCell id="gH96lnTBLUfetaesUJGe-2" style="edgeStyle=orthogonalEdgeStyle;rounded=0;orthogonalLoop=1;jettySize=auto;html=1;entryX=0.5;entryY=0;entryDx=0;entryDy=0;" edge="1" parent="dNxyNK7c78bLwvsdeMH5-11" source="WeWwHeKYHVYtI0MyBNUX-1" target="gH96lnTBLUfetaesUJGe-1">
          <mxGeometry relative="1" as="geometry" />
        </mxCell>
        <mxCell id="WeWwHeKYHVYtI0MyBNUX-1" value="onMessage" style="rounded=0;whiteSpace=wrap;html=1;" parent="dNxyNK7c78bLwvsdeMH5-11" vertex="1">
          <mxGeometry x="295" y="40" width="120" height="40" as="geometry" />
        </mxCell>
        <mxCell id="WeWwHeKYHVYtI0MyBNUX-2" value="&lt;i&gt;&lt;b&gt;userName&lt;/b&gt;&lt;/i&gt;:&lt;br&gt;A new connection to server.&lt;br&gt;Save client information into database&amp;nbsp;" style="rounded=0;whiteSpace=wrap;html=1;" parent="dNxyNK7c78bLwvsdeMH5-11" vertex="1">
          <mxGeometry x="40" y="130" width="110" height="130" as="geometry" />
        </mxCell>
        <mxCell id="WeWwHeKYHVYtI0MyBNUX-3" value="&lt;i&gt;&lt;b&gt;getSharedList&lt;/b&gt;&lt;/i&gt;:&lt;br&gt;Return all current clients to request client." style="rounded=0;whiteSpace=wrap;html=1;" parent="dNxyNK7c78bLwvsdeMH5-11" vertex="1">
          <mxGeometry x="170" y="130" width="110" height="130" as="geometry" />
        </mxCell>
        <mxCell id="WeWwHeKYHVYtI0MyBNUX-4" value="&lt;i&gt;&lt;b&gt;newAnswer&lt;/b&gt;&lt;/i&gt;:&lt;br&gt;Trace offer sender, send answer offer back to that client&lt;br&gt;send signal &#39;ack&#39; to request update ICE candidate" style="rounded=0;whiteSpace=wrap;html=1;" parent="dNxyNK7c78bLwvsdeMH5-11" vertex="1">
          <mxGeometry x="300" y="130" width="110" height="130" as="geometry" />
        </mxCell>
        <mxCell id="WeWwHeKYHVYtI0MyBNUX-5" value="&lt;b&gt;&lt;i&gt;newOffer&lt;/i&gt;&lt;/b&gt;:&lt;br&gt;send offer to all selected clients" style="rounded=0;whiteSpace=wrap;html=1;" parent="dNxyNK7c78bLwvsdeMH5-11" vertex="1">
          <mxGeometry x="430" y="130" width="110" height="130" as="geometry" />
        </mxCell>
        <mxCell id="WeWwHeKYHVYtI0MyBNUX-7" value="remove client from database" style="rounded=0;whiteSpace=wrap;html=1;" parent="dNxyNK7c78bLwvsdeMH5-11" vertex="1">
          <mxGeometry x="690" y="130" width="120" height="130" as="geometry" />
        </mxCell>
        <mxCell id="WeWwHeKYHVYtI0MyBNUX-15" style="edgeStyle=orthogonalEdgeStyle;rounded=0;orthogonalLoop=1;jettySize=auto;html=1;entryX=0.5;entryY=0;entryDx=0;entryDy=0;" parent="dNxyNK7c78bLwvsdeMH5-11" source="WeWwHeKYHVYtI0MyBNUX-8" target="WeWwHeKYHVYtI0MyBNUX-7" edge="1">
          <mxGeometry relative="1" as="geometry" />
        </mxCell>
        <mxCell id="WeWwHeKYHVYtI0MyBNUX-8" value="onClose" style="rounded=0;whiteSpace=wrap;html=1;" parent="dNxyNK7c78bLwvsdeMH5-11" vertex="1">
          <mxGeometry x="690" y="40" width="120" height="40" as="geometry" />
        </mxCell>
        <mxCell id="WeWwHeKYHVYtI0MyBNUX-14" style="edgeStyle=orthogonalEdgeStyle;rounded=0;orthogonalLoop=1;jettySize=auto;html=1;entryX=0.558;entryY=-0.019;entryDx=0;entryDy=0;entryPerimeter=0;" parent="dNxyNK7c78bLwvsdeMH5-11" source="WeWwHeKYHVYtI0MyBNUX-1" target="WeWwHeKYHVYtI0MyBNUX-5" edge="1">
          <mxGeometry relative="1" as="geometry" />
        </mxCell>
        <mxCell id="gH96lnTBLUfetaesUJGe-1" value="&lt;i&gt;&lt;b&gt;sendICEcandidate&lt;/b&gt;&lt;/i&gt;&lt;div&gt;&lt;i&gt;&lt;b&gt;ToSignalingserver&lt;/b&gt;&lt;/i&gt;:&lt;br&gt;Send ICECandidate to all clients or send back to offerer&lt;/div&gt;" style="rounded=0;whiteSpace=wrap;html=1;" vertex="1" parent="dNxyNK7c78bLwvsdeMH5-11">
          <mxGeometry x="560" y="130" width="110" height="130" as="geometry" />
        </mxCell>
      </root>
    </mxGraphModel>
  </diagram>
</mxfile>
